<svg width="11" height="19" viewBox="0 0 11 19" fill="none" xmlns="http://www.w3.org/2000/svg">
<path d="M10.5059 9.32422C10.5059 9.46029 10.4772 9.58919 10.4199 9.71094C10.3698 9.82552 10.2946 9.93294 10.1943 10.0332L1.68652 18.3584C1.49316 18.5518 1.25684 18.6484 0.977539 18.6484C0.798503 18.6484 0.633789 18.6055 0.483398 18.5195C0.333008 18.4336 0.214844 18.3154 0.128906 18.165C0.0429688 18.0218 0 17.8571 0 17.6709C0 17.4059 0.093099 17.1732 0.279297 16.9727L8.09961 9.32422L0.279297 1.67578C0.093099 1.47526 0 1.24251 0 0.977539C0 0.791341 0.0429688 0.626628 0.128906 0.483398C0.214844 0.333008 0.333008 0.214844 0.483398 0.128906C0.633789 0.0429688 0.798503 0 0.977539 0C1.25684 0 1.49316 0.093099 1.68652 0.279297L10.1943 8.61523C10.2946 8.71549 10.3698 8.8265 10.4199 8.94824C10.4772 9.06283 10.5059 9.18815 10.5059 9.32422Z" fill="#8E8E93"/>
</svg>
