<svg width="11" height="19" viewBox="0 0 11 19" fill="none" xmlns="http://www.w3.org/2000/svg">
<path d="M0 9.32422C0 9.18815 0.0250651 9.06283 0.0751953 8.94824C0.125326 8.8265 0.200521 8.71549 0.300781 8.61523L8.81934 0.279297C9.0127 0.093099 9.24544 0 9.51758 0C9.70378 0 9.86849 0.0429688 10.0117 0.128906C10.1621 0.214844 10.2803 0.333008 10.3662 0.483398C10.4593 0.626628 10.5059 0.791341 10.5059 0.977539C10.5059 1.24251 10.4092 1.47526 10.2158 1.67578L2.39551 9.32422L10.2158 16.9727C10.4092 17.1732 10.5059 17.4059 10.5059 17.6709C10.5059 17.8571 10.4593 18.0218 10.3662 18.165C10.2803 18.3154 10.1621 18.4336 10.0117 18.5195C9.86849 18.6055 9.70378 18.6484 9.51758 18.6484C9.24544 18.6484 9.0127 18.5518 8.81934 18.3584L0.300781 10.0332C0.200521 9.93294 0.125326 9.82552 0.0751953 9.71094C0.0250651 9.58919 0 9.46029 0 9.32422Z" fill="#8E8E93"/>
</svg>
