<svg width="29" height="26" viewBox="0 0 29 26" fill="none" xmlns="http://www.w3.org/2000/svg">
<path d="M1.74072 25.0327C1.1792 25.0327 0.748698 24.8792 0.449219 24.5723C0.14974 24.2728 0 23.8498 0 23.3032V4.95264C0 4.40609 0.14974 3.97933 0.449219 3.67236C0.748698 3.3654 1.1792 3.21191 1.74072 3.21191H3.80713C4.36117 3.21191 4.78792 3.3654 5.0874 3.67236C5.38688 3.97933 5.53662 4.40609 5.53662 4.95264V23.3032C5.53662 23.8498 5.38688 24.2728 5.0874 24.5723C4.78792 24.8792 4.36117 25.0327 3.80713 25.0327H1.74072ZM8.625 25.0327C8.07096 25.0327 7.64046 24.8792 7.3335 24.5723C7.03402 24.2728 6.88428 23.8498 6.88428 23.3032V9.0293C6.88428 8.48275 7.03402 8.05599 7.3335 7.74902C7.64046 7.44206 8.07096 7.28857 8.625 7.28857H12.8027C13.3493 7.28857 13.7723 7.44206 14.0718 7.74902C14.3787 8.05599 14.5322 8.48275 14.5322 9.0293V23.3032C14.5322 23.8498 14.3787 24.2728 14.0718 24.5723C13.7723 24.8792 13.3493 25.0327 12.8027 25.0327H8.625ZM9.57959 11.6123H11.8818C12.1064 11.6123 12.2936 11.5374 12.4434 11.3877C12.5931 11.2305 12.668 11.0396 12.668 10.8149C12.668 10.5903 12.5968 10.4032 12.4546 10.2534C12.3198 10.1037 12.1289 10.0288 11.8818 10.0288H9.57959C9.34749 10.0288 9.15283 10.1037 8.99561 10.2534C8.84587 10.4032 8.771 10.5903 8.771 10.8149C8.771 11.0396 8.84587 11.2305 8.99561 11.3877C9.15283 11.5374 9.34749 11.6123 9.57959 11.6123ZM9.57959 22.3037H11.8818C12.1064 22.3037 12.2936 22.2251 12.4434 22.0679C12.5931 21.9181 12.668 21.731 12.668 21.5063C12.668 21.2892 12.5931 21.1021 12.4434 20.9448C12.2936 20.7951 12.1064 20.7202 11.8818 20.7202H9.57959C9.34749 20.7202 9.15283 20.7951 8.99561 20.9448C8.84587 21.1021 8.771 21.2892 8.771 21.5063C8.771 21.731 8.84587 21.9181 8.99561 22.0679C9.15283 22.2251 9.34749 22.3037 9.57959 22.3037ZM17.6206 25.0327C17.0666 25.0327 16.6361 24.8792 16.3291 24.5723C16.0296 24.2728 15.8799 23.8498 15.8799 23.3032V1.74072C15.8799 1.19417 16.0296 0.767415 16.3291 0.460449C16.6361 0.153483 17.0666 0 17.6206 0H20.1138C20.6678 0 21.0946 0.153483 21.394 0.460449C21.6935 0.767415 21.8433 1.19417 21.8433 1.74072V23.3032C21.8433 23.8498 21.6935 24.2728 21.394 24.5723C21.0946 24.8792 20.6678 25.0327 20.1138 25.0327H17.6206ZM25.5156 25.1001C24.9691 25.1675 24.5273 25.0627 24.1904 24.7856C23.861 24.5161 23.6663 24.1081 23.6064 23.5615L21.6299 5.48047C21.5775 4.93392 21.6823 4.49219 21.9443 4.15527C22.2064 3.81836 22.6144 3.61995 23.1685 3.56006L24.7744 3.34668C25.3285 3.28678 25.7702 3.3916 26.0996 3.66113C26.4365 3.93066 26.6312 4.3387 26.6836 4.88525L28.6602 22.9663C28.7201 23.5129 28.6152 23.9508 28.3457 24.2803C28.0837 24.6172 27.6794 24.8193 27.1328 24.8867L25.5156 25.1001Z" fill="#8E8E93"/>
</svg>
