<svg width="29" height="24" viewBox="0 0 29 24" fill="none" xmlns="http://www.w3.org/2000/svg">
<path d="M13.8584 14.8242C14.4948 14.8242 15.0413 14.5959 15.498 14.1392C15.9622 13.675 16.1943 13.1172 16.1943 12.4658C16.1943 12.0391 16.0895 11.6497 15.8799 11.2979C15.6702 10.9385 15.3857 10.6502 15.0264 10.4331C14.6745 10.216 14.2852 10.1074 13.8584 10.1074C13.207 10.1074 12.6493 10.3395 12.1851 10.8037C11.7284 11.2679 11.5 11.8219 11.5 12.4658C11.5 13.1172 11.7284 13.675 12.1851 14.1392C12.6493 14.5959 13.207 14.8242 13.8584 14.8242ZM9.46729 21.4053H25.0215C25.4482 21.4053 25.7852 21.2817 26.0322 21.0347C26.2868 20.7876 26.4141 20.4432 26.4141 20.0015V18.6089L22.2476 14.7456C22.0379 14.5509 21.8096 14.4087 21.5625 14.3188C21.3154 14.2215 21.0646 14.1729 20.8101 14.1729C20.548 14.1729 20.2935 14.2178 20.0464 14.3076C19.8068 14.3975 19.5785 14.5397 19.3613 14.7344L15.0039 18.5977L13.252 17.0142C13.0648 16.8345 12.8589 16.7035 12.6343 16.6211C12.4097 16.5312 12.1813 16.4863 11.9492 16.4863C11.7396 16.4863 11.5262 16.5312 11.3091 16.6211C11.0994 16.7035 10.8973 16.8307 10.7026 17.0029L8.07471 19.395V20.0015C8.07471 20.4432 8.19824 20.7876 8.44531 21.0347C8.69238 21.2817 9.03304 21.4053 9.46729 21.4053ZM9.57959 23.7188C8.33675 23.7188 7.38965 23.3968 6.73828 22.7529C6.0944 22.1165 5.77246 21.1807 5.77246 19.9453V9.22021C5.77246 7.98486 6.0944 7.04899 6.73828 6.4126C7.38965 5.76872 8.33675 5.44678 9.57959 5.44678H24.8979C26.1333 5.44678 27.0767 5.76872 27.728 6.4126C28.3794 7.05648 28.7051 7.99235 28.7051 9.22021V19.9453C28.7051 21.1807 28.3794 22.1165 27.728 22.7529C27.0767 23.3968 26.1333 23.7188 24.8979 23.7188H9.57959ZM9.57959 3.73975C8.43408 3.73975 7.44954 3.96061 6.62598 4.40234C5.80241 4.83659 5.16602 5.46549 4.7168 6.28906C4.27507 7.10514 4.0542 8.08219 4.0542 9.22021V18.272H3.71729C2.49691 18.257 1.57227 17.9313 0.943359 17.2949C0.314453 16.651 0 15.7189 0 14.4985V3.77344C0 2.53809 0.32194 1.60221 0.96582 0.96582C1.61719 0.32194 2.56429 0 3.80713 0H19.1255C20.3309 0 21.2555 0.306966 21.8994 0.920898C22.5433 1.53483 22.884 2.42952 22.9214 3.60498V3.73975H9.57959Z" fill="#007BFE"/>
</svg>
