<svg width="27" height="22" viewBox="0 0 27 22" fill="none" xmlns="http://www.w3.org/2000/svg">
<path d="M6.51367 0C7.74902 0 8.88704 0.23584 9.92773 0.70752C10.9759 1.17171 11.7733 1.80811 12.3198 2.6167C12.4321 2.7889 12.5033 2.91992 12.5332 3.00977C12.5632 3.09961 12.5781 3.22314 12.5781 3.38037V20.3271C12.5781 20.4844 12.5295 20.6079 12.4321 20.6978C12.3348 20.7951 12.215 20.8438 12.0728 20.8438C11.9006 20.8438 11.7433 20.7839 11.6011 20.6641C11.1968 20.3197 10.755 20.0277 10.2759 19.7881C9.79671 19.556 9.29134 19.38 8.75977 19.2603C8.23568 19.1405 7.69287 19.0806 7.13135 19.0806C6.27035 19.0806 5.42432 19.2153 4.59326 19.4849C3.76969 19.7544 3.021 20.1475 2.34717 20.6641C2.13753 20.8063 1.95036 20.9111 1.78564 20.9785C1.62093 21.0459 1.43001 21.0796 1.21289 21.0796C0.838542 21.0796 0.542806 20.9748 0.325684 20.7651C0.108561 20.563 0 20.271 0 19.8892V4.17773C0 3.90072 0.0112305 3.69482 0.0336914 3.56006C0.0636393 3.41781 0.127279 3.26807 0.224609 3.11084C0.591471 2.46696 1.10433 1.91667 1.76318 1.45996C2.42952 0.995768 3.17448 0.636393 3.99805 0.381836C4.82161 0.127279 5.66016 0 6.51367 0ZM20.3271 0C21.1732 0 22.008 0.127279 22.8315 0.381836C23.6551 0.636393 24.3963 0.995768 25.0552 1.45996C25.7215 1.91667 26.2419 2.46696 26.6162 3.11084C26.7061 3.26058 26.7622 3.40658 26.7847 3.54883C26.8146 3.69108 26.8296 3.90072 26.8296 4.17773V19.8892C26.8296 20.271 26.721 20.563 26.5039 20.7651C26.2943 20.9748 25.9985 21.0796 25.6167 21.0796C25.4071 21.0796 25.2161 21.0459 25.0439 20.9785C24.8792 20.9111 24.6921 20.8063 24.4824 20.6641C23.8086 20.1475 23.0562 19.7544 22.2251 19.4849C21.4015 19.2153 20.5592 19.0806 19.6982 19.0806C19.1442 19.0806 18.6014 19.1405 18.0698 19.2603C17.5457 19.38 17.0441 19.556 16.5649 19.7881C16.0858 20.0277 15.644 20.3197 15.2397 20.6641C15.09 20.7839 14.929 20.8438 14.7568 20.8438C14.6146 20.8438 14.4948 20.7951 14.3975 20.6978C14.3001 20.6079 14.2515 20.4844 14.2515 20.3271V3.38037C14.2515 3.22314 14.2664 3.09961 14.2964 3.00977C14.3338 2.91992 14.4049 2.7889 14.5098 2.6167C15.0638 1.80811 15.8612 1.17171 16.9019 0.70752C17.9425 0.23584 19.0843 0 20.3271 0Z" fill="black"/>
</svg>
