<svg width="81" height="30" viewBox="0 0 81 30" fill="none" xmlns="http://www.w3.org/2000/svg">
<g clip-path="url(#clip0_168027_3764)">
<rect width="81" height="30" fill="#333333" fill-opacity="0.35"/>
<rect width="81" height="30" fill="#666666" style="mix-blend-mode:color-dodge"/>
<path d="M12.5332 13.7266C12.5332 13.0625 12.6582 12.4375 12.9082 11.8516C13.1582 11.2656 13.5059 10.752 13.9512 10.3105C14.3965 9.86523 14.9102 9.51758 15.4922 9.26758C16.0781 9.01758 16.7051 8.89258 17.373 8.89258C18.041 8.89258 18.666 9.01758 19.248 9.26758C19.834 9.51758 20.3496 9.86523 20.7949 10.3105C21.2402 10.752 21.5879 11.2656 21.8379 11.8516C22.0879 12.4375 22.2129 13.0625 22.2129 13.7266C22.2129 14.2266 22.1387 14.7031 21.9902 15.1562C21.8457 15.6094 21.6426 16.0254 21.3809 16.4043L23.9062 18.9414C24 19.0391 24.0703 19.1465 24.1172 19.2637C24.168 19.3848 24.1934 19.5137 24.1934 19.6504C24.1934 19.8379 24.1504 20.0078 24.0645 20.1602C23.9785 20.3125 23.8613 20.4316 23.7129 20.5176C23.5645 20.6074 23.3926 20.6523 23.1973 20.6523C23.0645 20.6523 22.9355 20.6289 22.8105 20.582C22.6855 20.5352 22.5742 20.4629 22.4766 20.3652L19.9277 17.8164C19.5605 18.0508 19.1602 18.2363 18.7266 18.373C18.2969 18.5059 17.8457 18.5723 17.373 18.5723C16.7051 18.5723 16.0781 18.4473 15.4922 18.1973C14.9102 17.9473 14.3965 17.5996 13.9512 17.1543C13.5059 16.709 13.1582 16.1934 12.9082 15.6074C12.6582 15.0215 12.5332 14.3945 12.5332 13.7266ZM13.916 13.7266C13.916 14.207 14.0039 14.6562 14.1797 15.0742C14.3594 15.4922 14.6074 15.8594 14.9238 16.1758C15.2441 16.4922 15.6133 16.7402 16.0312 16.9199C16.4492 17.0996 16.8965 17.1895 17.373 17.1895C17.8496 17.1895 18.2969 17.0996 18.7148 16.9199C19.1328 16.7402 19.5 16.4922 19.8164 16.1758C20.1328 15.8594 20.3809 15.4922 20.5605 15.0742C20.7402 14.6562 20.8301 14.207 20.8301 13.7266C20.8301 13.25 20.7402 12.8047 20.5605 12.3906C20.3809 11.9727 20.1328 11.6055 19.8164 11.2891C19.5 10.9688 19.1328 10.7188 18.7148 10.5391C18.2969 10.3594 17.8496 10.2695 17.373 10.2695C16.8965 10.2695 16.4492 10.3594 16.0312 10.5391C15.6133 10.7188 15.2441 10.9688 14.9238 11.2891C14.6074 11.6055 14.3594 11.9727 14.1797 12.3906C14.0039 12.8047 13.916 13.25 13.916 13.7266ZM32.7188 19.2109C32.0625 19.2109 31.4922 19.1094 31.0078 18.9062C30.5273 18.7031 30.1484 18.4199 29.8711 18.0566C29.5938 17.6934 29.4375 17.2695 29.4023 16.7852L29.3965 16.7031H30.8613L30.8672 16.7617C30.8906 17 30.9844 17.207 31.1484 17.3828C31.3164 17.5586 31.5391 17.6973 31.8164 17.7988C32.0938 17.8965 32.4102 17.9453 32.7656 17.9453C33.1055 17.9453 33.4062 17.8926 33.668 17.7871C33.9297 17.6816 34.1348 17.5371 34.2832 17.3535C34.4316 17.166 34.5059 16.9512 34.5059 16.709V16.7031C34.5059 16.3984 34.3867 16.1504 34.1484 15.959C33.9102 15.7637 33.5176 15.6074 32.9707 15.4902L32.0625 15.3027C31.1953 15.1191 30.5645 14.8262 30.1699 14.4238C29.7793 14.0176 29.584 13.5 29.584 12.8711V12.8652C29.584 12.3613 29.7168 11.9199 29.9824 11.541C30.252 11.1621 30.6211 10.8672 31.0898 10.6562C31.5625 10.4414 32.1035 10.334 32.7129 10.334C33.3379 10.334 33.8789 10.4395 34.3359 10.6504C34.793 10.8574 35.1523 11.1406 35.4141 11.5C35.6758 11.8594 35.8223 12.2656 35.8535 12.7188L35.8594 12.7949H34.418L34.4062 12.7246C34.3711 12.502 34.2793 12.3086 34.1309 12.1445C33.9863 11.9766 33.793 11.8438 33.5508 11.7461C33.3086 11.6484 33.0254 11.5996 32.7012 11.5996C32.3926 11.5996 32.1172 11.6484 31.875 11.7461C31.6328 11.8398 31.4414 11.9727 31.3008 12.1445C31.1641 12.3164 31.0957 12.5234 31.0957 12.7656V12.7715C31.0957 13.0684 31.2109 13.3145 31.4414 13.5098C31.6758 13.7051 32.0566 13.8574 32.584 13.9668L33.4922 14.1602C34.0859 14.2852 34.5684 14.4512 34.9395 14.6582C35.3105 14.8652 35.582 15.123 35.7539 15.4316C35.9297 15.7363 36.0176 16.1035 36.0176 16.5332V16.5391C36.0176 17.0859 35.8828 17.5586 35.6133 17.957C35.3477 18.3555 34.9668 18.6641 34.4707 18.8828C33.9785 19.1016 33.3945 19.2109 32.7188 19.2109ZM40.3066 19.1289C39.6699 19.1289 39.123 18.9941 38.666 18.7246C38.2129 18.4551 37.8633 18.0723 37.6172 17.5762C37.3711 17.0801 37.248 16.4922 37.248 15.8125V15.8066C37.248 15.1348 37.3691 14.5488 37.6113 14.0488C37.8574 13.5488 38.2051 13.1621 38.6543 12.8887C39.1035 12.6113 39.6309 12.4727 40.2363 12.4727C40.8457 12.4727 41.3691 12.6074 41.8066 12.877C42.248 13.1426 42.5879 13.5156 42.8262 13.9961C43.0645 14.4766 43.1836 15.0391 43.1836 15.6836V16.1641H37.9805V15.1855H42.4688L41.7773 16.0996V15.5195C41.7773 15.0938 41.7129 14.7402 41.584 14.459C41.4551 14.1777 41.2754 13.9668 41.0449 13.8262C40.8184 13.6855 40.5547 13.6152 40.2539 13.6152C39.9531 13.6152 39.6855 13.6895 39.4512 13.8379C39.2207 13.9824 39.0371 14.1973 38.9004 14.4824C38.7676 14.7637 38.7012 15.1094 38.7012 15.5195V16.1055C38.7012 16.5 38.7676 16.8379 38.9004 17.1191C39.0332 17.3965 39.2207 17.6113 39.4629 17.7637C39.709 17.9121 40 17.9863 40.3359 17.9863C40.5977 17.9863 40.8223 17.9492 41.0098 17.875C41.2012 17.7969 41.3555 17.7051 41.4727 17.5996C41.5898 17.4902 41.6719 17.3867 41.7188 17.2891L41.7363 17.248H43.1191L43.1074 17.3008C43.0566 17.5078 42.9629 17.7188 42.8262 17.9336C42.6934 18.1445 42.5117 18.3418 42.2812 18.5254C42.0547 18.7051 41.7773 18.8516 41.4492 18.9648C41.1211 19.0742 40.7402 19.1289 40.3066 19.1289ZM46.3887 19.1055C45.9863 19.1055 45.625 19.0273 45.3047 18.8711C44.9883 18.7148 44.7383 18.4941 44.5547 18.209C44.375 17.9199 44.2852 17.5801 44.2852 17.1895V17.1777C44.2852 16.7988 44.3789 16.4727 44.5664 16.1992C44.7539 15.9219 45.0293 15.7051 45.3926 15.5488C45.7559 15.3926 46.1973 15.3008 46.7168 15.2734L49.084 15.127V16.0879L46.9219 16.2285C46.5117 16.252 46.209 16.3379 46.0137 16.4863C45.8184 16.6348 45.7207 16.8418 45.7207 17.1074V17.1191C45.7207 17.3926 45.8242 17.6055 46.0312 17.7578C46.2422 17.9102 46.5098 17.9863 46.834 17.9863C47.127 17.9863 47.3887 17.9277 47.6191 17.8105C47.8496 17.6934 48.0312 17.5352 48.1641 17.3359C48.2969 17.1328 48.3633 16.9043 48.3633 16.6504V14.623C48.3633 14.3027 48.2617 14.0586 48.0586 13.8906C47.8555 13.7188 47.5547 13.6328 47.1562 13.6328C46.8242 13.6328 46.5527 13.6914 46.3418 13.8086C46.1309 13.9219 45.9883 14.084 45.9141 14.2949L45.9082 14.3184H44.5312L44.5371 14.2656C44.584 13.9062 44.7246 13.5918 44.959 13.3223C45.1934 13.0527 45.5039 12.8438 45.8906 12.6953C46.2773 12.5469 46.7227 12.4727 47.2266 12.4727C47.7812 12.4727 48.25 12.5586 48.6328 12.7305C49.0156 12.8984 49.3066 13.1445 49.5059 13.4688C49.7051 13.7891 49.8047 14.1738 49.8047 14.623V19H48.3633V18.1211H48.2637C48.1465 18.3242 47.9941 18.5 47.8066 18.6484C47.623 18.7969 47.4121 18.9102 47.1738 18.9883C46.9355 19.0664 46.6738 19.1055 46.3887 19.1055ZM51.5566 19V12.5957H53.0156V13.5801H53.1152C53.2246 13.2363 53.4199 12.9688 53.7012 12.7773C53.9863 12.5859 54.3398 12.4902 54.7617 12.4902C54.8711 12.4902 54.9785 12.498 55.084 12.5137C55.1934 12.5254 55.2832 12.541 55.3535 12.5605V13.8672C55.2363 13.8398 55.1172 13.8203 54.9961 13.8086C54.8789 13.793 54.7559 13.7852 54.627 13.7852C54.3027 13.7852 54.0195 13.8457 53.7773 13.9668C53.5352 14.0879 53.3477 14.2617 53.2148 14.4883C53.082 14.7109 53.0156 14.9746 53.0156 15.2793V19H51.5566ZM59.1328 19.1289C58.4883 19.1289 57.9375 18.9961 57.4805 18.7305C57.0234 18.4648 56.6738 18.082 56.4316 17.582C56.1895 17.082 56.0684 16.4844 56.0684 15.7891V15.7773C56.0684 15.0859 56.1895 14.4941 56.4316 14.002C56.6738 13.5098 57.0234 13.1328 57.4805 12.8711C57.9375 12.6055 58.4863 12.4727 59.127 12.4727C59.6777 12.4727 60.1504 12.5684 60.5449 12.7598C60.9434 12.9473 61.2578 13.209 61.4883 13.5449C61.7227 13.877 61.8672 14.2656 61.9219 14.7109V14.7344H60.5449L60.5391 14.7168C60.4727 14.4043 60.3203 14.1484 60.082 13.9492C59.8477 13.75 59.5312 13.6504 59.1328 13.6504C58.8008 13.6504 58.5156 13.7344 58.2773 13.9023C58.043 14.0703 57.8633 14.3125 57.7383 14.6289C57.6133 14.9453 57.5508 15.3281 57.5508 15.7773V15.7891C57.5508 16.2422 57.6133 16.6309 57.7383 16.9551C57.8672 17.2754 58.0488 17.5215 58.2832 17.6934C58.5176 17.8613 58.8008 17.9453 59.1328 17.9453C59.5117 17.9453 59.8164 17.8594 60.0469 17.6875C60.2812 17.5156 60.4434 17.2617 60.5332 16.9258L60.5449 16.9023L61.916 16.8965L61.9102 16.9492C61.8398 17.3828 61.6875 17.7637 61.4531 18.0918C61.2227 18.4199 60.9141 18.6758 60.5273 18.8594C60.1406 19.0391 59.6758 19.1289 59.1328 19.1289ZM63.3691 19V10.1172H64.8281V13.5801H64.9277C65.0801 13.2324 65.3105 12.9609 65.6191 12.7656C65.9277 12.5703 66.3125 12.4727 66.7734 12.4727C67.25 12.4727 67.6523 12.5664 67.9805 12.7539C68.3086 12.9375 68.5566 13.207 68.7246 13.5625C68.8965 13.918 68.9824 14.3496 68.9824 14.8574V19H67.5234V15.1973C67.5234 14.6973 67.418 14.3223 67.207 14.0723C67 13.8223 66.6758 13.6973 66.2344 13.6973C65.9453 13.6973 65.6953 13.7617 65.4844 13.8906C65.2734 14.0195 65.1113 14.2012 64.998 14.4355C64.8848 14.6699 64.8281 14.9473 64.8281 15.2676V19H63.3691Z" fill="white"/>
</g>
<defs>
<clipPath id="clip0_168027_3764">
<rect width="81" height="30" rx="15" fill="white"/>
</clipPath>
</defs>
</svg>
