<svg width="23" height="23" viewBox="0 0 23 23" fill="none" xmlns="http://www.w3.org/2000/svg">
<path d="M0 9.26514C0 7.99235 0.239583 6.79443 0.71875 5.67139C1.19792 4.54834 1.86426 3.5638 2.71777 2.71777C3.57129 1.86426 4.55583 1.19792 5.67139 0.71875C6.79443 0.239583 7.99609 0 9.27637 0C10.5566 0 11.7546 0.239583 12.8701 0.71875C13.9932 1.19792 14.9814 1.86426 15.835 2.71777C16.6885 3.5638 17.3548 4.54834 17.834 5.67139C18.3132 6.79443 18.5527 7.99235 18.5527 9.26514C18.5527 10.2235 18.4105 11.1369 18.126 12.0054C17.849 12.8739 17.4596 13.6712 16.958 14.3975L21.7983 19.2603C21.978 19.4474 22.1128 19.6533 22.2026 19.8779C22.3 20.11 22.3486 20.3571 22.3486 20.6191C22.3486 20.9785 22.2663 21.3042 22.1016 21.5962C21.9368 21.8882 21.7122 22.1165 21.4277 22.2812C21.1432 22.4535 20.8138 22.5396 20.4395 22.5396C20.1849 22.5396 19.9378 22.4946 19.6982 22.4048C19.4587 22.3149 19.2453 22.1764 19.0581 21.9893L14.1729 17.104C13.4691 17.5532 12.7017 17.9089 11.8706 18.1709C11.047 18.4255 10.1823 18.5527 9.27637 18.5527C7.99609 18.5527 6.79443 18.3132 5.67139 17.834C4.55583 17.3548 3.57129 16.6885 2.71777 15.835C1.86426 14.9814 1.19792 13.9932 0.71875 12.8701C0.239583 11.7471 0 10.5454 0 9.26514ZM2.65039 9.26514C2.65039 10.186 2.81885 11.047 3.15576 11.8481C3.50016 12.6493 3.97559 13.353 4.58203 13.9595C5.19596 14.5659 5.90348 15.0413 6.70459 15.3857C7.5057 15.7301 8.36296 15.9023 9.27637 15.9023C10.1898 15.9023 11.047 15.7301 11.8481 15.3857C12.6493 15.0413 13.353 14.5659 13.9595 13.9595C14.5659 13.353 15.0413 12.6493 15.3857 11.8481C15.7301 11.047 15.9023 10.186 15.9023 9.26514C15.9023 8.35173 15.7301 7.49821 15.3857 6.70459C15.0413 5.90348 14.5659 5.19971 13.9595 4.59326C13.353 3.97933 12.6493 3.50016 11.8481 3.15576C11.047 2.81136 10.1898 2.63916 9.27637 2.63916C8.36296 2.63916 7.5057 2.81136 6.70459 3.15576C5.90348 3.50016 5.19596 3.97933 4.58203 4.59326C3.97559 5.19971 3.50016 5.90348 3.15576 6.70459C2.81885 7.49821 2.65039 8.35173 2.65039 9.26514Z" fill="#8E8E93"/>
</svg>
